<svg width="2051" height="2051" viewBox="0 0 2051 2051" fill="none" xmlns="http://www.w3.org/2000/svg">
<circle cx="1025.5" cy="1025.5" r="892.5" stroke="white" stroke-width="60"/>
<path d="M1909.91 1025.5C1909.91 537.056 1513.94 141.094 1025.5 141.094C537.056 141.094 141.094 537.056 141.094 1025.5C141.094 1513.94 537.056 1909.91 1025.5 1909.91V1948C516.017 1948 103 1534.98 103 1025.5C103 516.017 516.017 103 1025.5 103C1534.98 103 1948 516.017 1948 1025.5C1948 1534.98 1534.98 1948 1025.5 1948V1909.91C1513.94 1909.91 1909.91 1513.94 1909.91 1025.5Z" fill="white"/>
<path d="M1909.91 1025.5C1909.91 537.056 1513.94 141.094 1025.5 141.094C537.056 141.094 141.094 537.056 141.094 1025.5C141.094 1513.94 537.056 1909.91 1025.5 1909.91V1948C516.017 1948 103 1534.98 103 1025.5C103 516.017 516.017 103 1025.5 103C1534.98 103 1948 516.017 1948 1025.5C1948 1534.98 1534.98 1948 1025.5 1948V1909.91C1513.94 1909.91 1909.91 1513.94 1909.91 1025.5Z" fill="white"/>
<path d="M1026 735C1186.71 735 1317 865.285 1317 1026C1317 1186.71 1186.71 1317 1026 1317C865.285 1317 735 1186.71 735 1026C735 865.285 865.285 735 1026 735ZM1026 789.307C895.278 789.307 789.307 895.278 789.307 1026C789.307 1156.72 895.278 1262.69 1026 1262.69C1156.72 1262.69 1262.69 1156.72 1262.69 1026C1262.69 895.278 1156.72 789.307 1026 789.307Z" fill="white"/>
</svg>
