<svg width="2051" height="2051" viewBox="0 0 2051 2051" fill="none" xmlns="http://www.w3.org/2000/svg">
<path d="M520 238C680.715 238 811 368.285 811 529C811 689.715 680.715 820 520 820C359.285 820 229 689.715 229 529C229 368.285 359.285 238 520 238ZM520 292.307C389.278 292.307 283.307 398.278 283.307 529C283.307 659.722 389.278 765.693 520 765.693C650.722 765.693 756.693 659.722 756.693 529C756.693 398.278 650.722 292.307 520 292.307Z" fill="white"/>
<path d="M520 1232C680.715 1232 811 1362.29 811 1523C811 1683.71 680.715 1814 520 1814C359.285 1814 229 1683.71 229 1523C229 1362.29 359.285 1232 520 1232ZM520 1286.31C389.278 1286.31 283.307 1392.28 283.307 1523C283.307 1653.72 389.278 1759.69 520 1759.69C650.722 1759.69 756.693 1653.72 756.693 1523C756.693 1392.28 650.722 1286.31 520 1286.31Z" fill="white"/>
<path d="M737.588 688L1760.71 1711.12L1711.11 1760.72L686 735.602L737.588 688Z" fill="white"/>
<path d="M688.398 1355.12L1711.52 332.003L1761.11 381.597L736 1406.71L688.398 1355.12Z" fill="white"/>
</svg>
